<svg width="350" height="350" viewBox="0 0 350 350" fill="none" xmlns="http://www.w3.org/2000/svg">
<path d="M321.549 1.03281L102.819 65.6256C98.3793 67.0203 94.4998 69.7947 91.7448 73.5456C88.9898 77.2964 87.5028 81.8281 87.5 86.482V265.18C80.337 263.442 72.9959 262.542 65.625 262.501C29.3945 262.501 0 282.092 0 306.251C0 330.409 29.3945 350.001 65.625 350.001C101.855 350.001 131.25 330.409 131.25 306.251V146.508L306.25 95.2389V221.437C299.088 219.692 291.746 218.791 284.375 218.751C248.145 218.751 218.75 238.342 218.75 262.501C218.75 286.659 248.145 306.251 284.375 306.251C320.605 306.251 350 286.666 350 262.501V21.8756C349.997 18.4415 349.185 15.0564 347.631 11.9942C346.076 8.93209 343.823 6.27892 341.052 4.24948C338.282 2.22003 335.073 0.871322 331.685 0.312496C328.296 -0.246329 324.824 0.000432052 321.549 1.03281V1.03281Z" fill="url(#paint0_linear)"/>
<defs>
<linearGradient id="paint0_linear" x1="175" y1="0.0209198" x2="175" y2="350.001" gradientUnits="userSpaceOnUse">
<stop stop-color="#7F7FD5"/>
<stop offset="1" stop-color="#91EAE4"/>
</linearGradient>
</defs>
</svg>
